<svg width="483" height="82" viewBox="0 0 483 82" fill="none" xmlns="http://www.w3.org/2000/svg">
<path d="M40.35 22.2778C38.4076 21.9424 36.4486 21.6405 34.4895 21.3889C30.8057 20.9361 29.8011 20.8019 26.0838 20.9193C24.1415 20.9864 22.2661 21.5231 20.3573 21.7076C19.6875 21.7747 19.3694 22.2946 19.1517 22.8984C18.6326 24.3073 18.7666 26.7058 20.5247 28.0979C21.6131 28.97 22.668 30.0267 24.242 28.9868C24.4931 28.8191 24.895 28.9197 25.2299 28.8862C29.1313 28.4836 30.3034 28.97 34.1881 29.2552C35.109 29.3223 35.1425 29.5738 34.7239 30.2951C33.7862 31.9388 32.8653 33.5992 31.9778 35.2765L30.002 38.9496C27.2224 42.019 24.761 45.4238 20.9768 47.4197C21.6801 46.5307 22.8354 46.0779 23.3043 44.9541C22.0652 45.5579 20.9601 46.3127 19.8047 47.0004C18.6159 47.688 17.3433 48.1577 15.9033 48.0235C17.1926 47.319 18.4819 46.6649 19.6708 45.8095C20.8429 44.9709 21.9647 44.1155 23.0531 42.7737C22.2829 42.824 22.0317 43.1092 21.7303 43.3272C20.3071 44.3335 18.8336 45.2393 17.2094 45.8934C15.0493 46.7656 13.1405 46.2792 11.5163 44.7193C9.59069 42.8744 9.00464 40.3753 8.5358 37.893C8.15068 35.7964 8.16743 33.6663 8.71999 31.5865C8.50231 33.8508 8.73673 36.0983 9.07162 38.329C9.38976 40.4591 10.227 42.388 11.6502 44.0316C12.7051 45.2393 14.2121 45.4573 15.1331 44.6019C12.2363 44.0316 11.4158 43.2601 10.5284 40.2411C10.1767 39.0167 9.90883 37.7588 9.84186 36.4673C9.49023 28.6514 12.3535 21.9089 16.8242 15.7534C18.5489 13.3885 20.7759 11.51 23.5889 10.4365C26.7871 9.22892 29.349 10.0508 31.2411 12.8853C31.4085 13.1369 31.576 13.3885 31.7099 13.6568C32.1285 14.5458 32.6978 14.5793 33.4011 13.9923C35.3434 12.3821 36.9509 10.4868 38.3909 8.44061C39.2281 7.24977 38.91 5.72349 37.7379 4.801C36.9174 4.14688 36.0802 3.49276 35.2095 2.88895C31.9109 0.607904 28.2104 -0.415213 24.1248 0.155049C18.4987 0.943352 14.0447 3.84498 10.4279 8.05485C4.70135 14.7135 1.21854 22.4288 0.230626 31.2008C-0.338681 36.2325 0.0631826 41.1636 2.3739 45.776C4.36647 49.7846 7.16277 52.9546 11.8512 53.7764C15.8531 54.4809 19.5368 53.441 22.802 51.2102C24.5768 50.0026 26.201 48.6776 27.6578 47.252C27.3229 48.3086 26.8708 49.6336 26.3015 51.2941C26.3015 51.2941 25.6652 53.1223 25.5145 53.2565C25.3638 53.3739 26.1173 53.9106 26.1508 53.8603C26.1508 53.8603 26.1676 53.8267 26.201 53.7764C26.8206 52.8372 27.708 52.0992 28.7294 51.6128L28.7462 51.596L28.5955 51.965C28.2271 52.9042 28.1099 53.9106 28.2271 54.9169C28.2271 54.9169 29.6169 54.5647 29.6839 53.7596C29.7508 52.9546 30.9229 52.3843 30.9062 53.8435C30.8895 55.3027 30.5211 56.1749 30.5211 56.1749C31.6764 55.8226 33.2504 52.5856 33.2504 52.5856C33.4681 53.4913 33.2504 55.2188 33.2504 55.2188C34.0709 54.0615 34.3723 50.3381 34.3723 50.3381C34.3723 50.3381 34.6067 52.4011 34.4392 53.2229C34.2718 54.0448 34.2885 55.4537 34.2885 55.4537L36.2644 50.3381C39.1779 43.2769 44.8375 32.6264 44.8375 32.6264C48.8561 23.8545 40.35 22.2778 40.35 22.2778ZM30.5546 9.51405C29.0141 8.74252 27.4401 8.07162 25.682 8.22257C23.9406 8.37353 22.3833 9.09474 20.8429 9.88304C23.3545 7.93744 28.3276 6.78015 30.5546 9.51405ZM2.7925 33.5154C3.32832 25.1459 6.24183 17.6319 11.6335 11.0403C7.0623 17.9338 3.3953 25.1627 2.7925 33.5154Z" fill="#FF1933"/>
<path d="M305.731 60.267C305.899 58.1201 306.284 56.0068 306.954 53.9438C308.377 49.583 309.984 45.2893 311.96 41.1465C312.061 40.9284 312.245 40.7272 312.194 40.3582C311.491 40.4588 310.788 40.5762 310.085 40.6768C309.901 40.7104 309.683 40.7943 309.566 40.5594C309.482 40.3917 309.566 40.2408 309.649 40.0898C310.135 39.3015 310.671 38.5635 311.089 37.7417C311.408 37.1379 312.144 37.1211 312.73 37.0876C313.735 37.0372 314.288 36.5676 314.773 35.6787C318.289 29.1542 322.392 23.0491 327.248 17.4303C327.984 16.5749 328.319 16.491 329.324 17.0781C329.943 17.4471 330.161 17.3464 330.161 16.6252C330.161 14.6629 330.446 12.734 330.697 10.7884C330.814 9.89949 331.316 9.37955 332.137 9.29569C333.878 9.11119 335.62 9.14474 337.344 9.51373C338.416 9.73177 338.483 9.98335 338.215 11.04C337.73 12.8682 337.629 14.7467 337.529 16.6085C337.21 22.462 337.478 28.282 338.064 34.1021C338.148 34.9407 338.5 35.142 339.253 35.0413C339.605 34.991 340.007 34.8401 340.342 35.3097C339.923 35.3097 339.488 35.3265 339.069 35.3097C338.567 35.2929 338.249 35.4439 338.332 36.0141C338.399 36.5341 338.215 37.205 339.086 37.2553C339.672 37.2888 340.291 37.1882 340.844 37.641C340.141 37.641 339.454 37.641 338.751 37.641C340.057 38.0436 341.43 37.7585 342.719 38.2616C341.497 38.2616 340.275 38.2616 339.036 38.2616C341.246 38.3958 343.456 38.4461 345.65 38.8487C344.528 39.0499 343.406 38.9828 342.284 38.9325C341.33 38.899 340.392 38.8654 339.437 38.7983C338.818 38.748 338.701 38.9996 338.784 39.5866C339.488 44.1991 340.409 48.7779 341.413 53.34C341.597 54.1786 341.782 55.0005 341.865 55.8559C339.957 50.5055 339.036 44.9203 337.997 39.3686C337.964 41.2136 338.416 43.0082 338.684 44.8364C338.952 46.6478 339.287 48.4592 339.454 50.3042C338.466 48.0399 338.232 45.5912 337.646 43.2095C337.612 44.3668 337.997 45.5241 337.897 46.8155C337.428 46.5304 337.411 46.1782 337.344 45.8763C336.842 43.8133 336.524 41.7167 336.189 39.6202C336.122 39.1506 336.055 38.7816 335.369 38.9157C334.598 39.0667 334.967 39.5699 335.017 39.8718C335.436 42.8405 335.904 45.7757 336.541 48.7108C336.909 50.4048 337.21 52.1156 337.545 53.8096C337.579 53.9941 337.663 54.1786 337.478 54.4805C336.993 53.5748 336.909 52.6188 336.524 51.7634C337.177 55.7217 338.5 59.5123 339.387 63.4202C338.198 61.1056 337.495 58.6065 336.725 56.141C337.143 60.6192 339.036 64.7117 340.124 69.0222C338.115 65.0471 336.859 60.8205 335.553 56.5771C337.06 63.2022 339.504 69.5086 342.2 75.7312C341.564 75.01 341.095 74.2049 340.677 73.3663C338.383 68.7874 336.842 63.9402 335.385 59.0594C333.493 52.7027 332.17 46.2117 331.35 39.6202C331.283 39.0667 331.099 38.8654 330.496 38.9157C327.817 39.1002 325.155 39.2344 322.475 39.3518C321.605 39.3854 321.052 39.6705 320.634 40.4924C319.328 43.1256 318.022 45.7589 316.799 48.4257C316.682 48.6941 316.548 48.9624 316.314 49.1805C317.184 45.8595 318.842 42.8573 320.081 39.6705C319.177 41.3142 318.256 42.9579 317.352 44.6016C317.268 44.568 317.201 44.5177 317.117 44.4842C317.536 42.8405 318.474 41.4148 319.093 39.855C318.49 40.3917 318.323 41.2807 317.586 41.8006C317.335 41.3981 317.636 41.1297 317.687 40.8278C317.737 40.5091 318.273 40.1066 317.77 39.9221C317.335 39.7544 316.715 39.7041 316.397 40.3582C315.928 41.3645 315.426 42.3709 314.924 43.3604C314.522 44.1487 314.103 44.937 313.618 45.6918C313.635 44.7693 314.103 43.9978 314.237 43.1088C312.981 45.9769 311.726 48.8618 310.47 51.7299C310.386 51.7131 310.302 51.6795 310.219 51.6628C310.269 51.0087 310.554 50.3881 310.754 49.7675C310.972 49.1134 311.24 48.4592 311.491 47.8051C311.742 47.1845 311.977 46.564 312.245 45.9434C312.513 45.306 312.781 44.6687 313.032 44.0146C310.955 47.52 309.482 51.3106 308.193 55.185C308.059 55.1347 307.925 55.0843 307.791 55.034C308.477 52.0485 309.616 49.214 310.537 46.2956C310.068 47.4529 309.582 48.5934 309.164 49.7507C307.941 53.1052 306.769 56.4932 306.116 60.0322C306.066 60.3006 305.949 60.5018 305.748 60.6696C305.731 60.5018 305.731 60.3844 305.731 60.267ZM323.296 35.8129C325.422 35.6619 327.499 35.511 329.575 35.3768C330.663 35.3097 330.697 35.3432 330.63 34.2027C330.479 31.6701 330.111 29.1542 330.111 26.6048C330.111 26.37 330.228 26.0178 329.96 25.9171C329.625 25.783 329.508 26.1855 329.357 26.3868C327.365 29.0536 325.489 31.7875 323.815 34.6723C323.648 35.0078 323.363 35.3265 323.296 35.8129ZM335.302 34.9239C334.632 28.9194 334.598 22.8981 334.649 16.86C334.096 22.9149 334.632 28.9194 335.302 34.9239ZM327.566 24.2399C327.482 24.2567 327.432 24.2399 327.432 24.2567C324.351 27.7956 322.107 31.8881 319.545 35.7793C319.478 35.8799 319.361 36.0309 319.528 36.1483C319.646 36.2322 319.83 36.2154 319.914 36.1148C320.081 35.8967 320.249 35.6619 320.366 35.4271C321.822 32.559 323.547 29.8419 325.422 27.2422C326.142 26.2526 326.846 25.2462 327.566 24.2399ZM336.206 25.7494C336.206 23.2671 336.156 20.7848 336.223 18.3025C336.29 15.8369 336.457 13.3882 336.926 10.9729C335.804 15.8537 335.821 20.8016 336.206 25.7494ZM320.299 28.7852C322.392 25.8165 324.719 23.0155 326.846 20.0803C324.25 22.6801 322.208 25.6823 320.299 28.7852Z" fill="white"/>
<path d="M89.763 50.757C91.3202 49.9855 92.576 48.8282 93.7649 47.6038C93.9825 47.369 94.1835 47.0671 94.4514 46.9329C95.9584 46.2453 96.5612 44.7525 97.5491 43.5785C99.6421 41.0961 101.015 38.2784 101.769 35.1419C102.087 33.8169 102.338 32.4751 102.69 31.1333C102.857 32.1061 102.84 33.0789 102.656 34.0685C101.199 41.7503 97.4319 47.9728 90.9351 52.4007C88.4067 54.1283 85.5602 54.9166 82.4792 54.3799C78.8624 53.7425 76.7024 51.3105 75.1619 48.2076C73.387 44.6519 73.0689 40.8446 73.5043 36.9534C74.2745 30.1773 76.9536 24.2231 81.3741 19.074C84.1704 15.8201 87.6197 13.5726 91.9565 12.9688C95.1044 12.5327 97.9677 13.321 100.563 15.0989C101.233 15.5518 101.869 16.0717 102.505 16.5749C103.41 17.2793 103.644 18.4702 103.008 19.3927C101.903 20.9693 100.647 22.4452 99.1565 23.6864C98.604 24.1392 98.1686 24.1225 97.8505 23.418C97.75 23.2 97.6161 23.0155 97.4989 22.8142C96.0254 20.617 94.0495 19.9965 91.5881 20.9189C89.4114 21.7408 87.6867 23.2 86.3639 25.0282C82.9146 29.7748 80.7043 34.991 80.9722 41.029C81.0224 42.0354 81.2234 42.9914 81.508 43.9474C82.1945 46.2956 82.8141 46.8658 85.0578 47.3187C84.3546 47.9896 83.1825 47.8219 82.3787 46.8826C81.2736 45.6247 80.6373 44.1319 80.3862 42.4715C80.135 40.7439 79.9508 39.0164 80.1183 37.2553C79.6996 38.8654 79.6662 40.5091 79.9676 42.1193C80.3192 44.0481 80.7713 45.9769 82.2615 47.4026C83.5174 48.6102 84.9909 48.9792 86.6485 48.3083C87.9044 47.8051 89.043 47.1174 90.1314 46.3291C90.3658 46.1614 90.5667 45.9434 91.1528 45.9098C90.3155 46.9329 89.4448 47.6038 88.5406 48.2579C87.6197 48.9121 86.6318 49.4152 85.6271 49.9687C86.749 50.0694 87.7202 49.7004 88.6411 49.1804C89.5286 48.6605 90.3993 48.0735 91.3369 47.6038C90.9686 48.4592 90.0811 48.8114 89.5453 49.4991C92.4756 47.956 94.3677 45.3396 96.5109 42.9579C94.9537 46.1614 92.576 48.6437 89.763 50.757ZM75.4131 40.3246C75.4968 33.1963 78.4941 27.1583 82.3118 21.4053C77.8075 26.9067 75.5471 33.2131 75.4131 40.3246ZM89.4281 20.4996C90.6169 19.8958 91.8225 19.3423 93.1621 19.2249C94.5184 19.1075 95.724 19.6442 96.9295 20.2313C95.2049 18.1179 91.3704 19.0069 89.4281 20.4996Z" fill="white"/>
<path d="M298.681 50.8241C300.239 50.0526 301.495 48.8953 302.683 47.6541C302.901 47.4193 303.102 47.1174 303.37 46.9832C304.877 46.2956 305.496 44.8028 306.468 43.6288C308.561 41.1464 309.934 38.3287 310.687 35.1922C311.005 33.8672 311.256 32.5254 311.625 31.1836C311.792 32.1564 311.776 33.146 311.591 34.1188C310.135 41.8173 306.35 48.0399 299.854 52.4846C297.325 54.2122 294.479 55.0172 291.381 54.4637C287.764 53.8264 285.604 51.3776 284.047 48.2747C282.272 44.7022 281.954 40.8949 282.389 37.0037C283.16 30.2276 285.855 24.2399 290.276 19.0907C293.072 15.8369 296.521 13.5894 300.875 12.9856C304.023 12.5495 306.886 13.3378 309.498 15.1157C310.168 15.5685 310.804 16.0885 311.457 16.5916C312.362 17.2961 312.596 18.4869 311.96 19.4094C310.855 21.0028 309.599 22.462 308.092 23.7031C307.539 24.156 307.104 24.1392 306.786 23.4348C306.685 23.2167 306.551 23.0322 306.434 22.831C304.961 20.6338 302.985 20.0132 300.507 20.9357C298.33 21.7575 296.605 23.2167 295.266 25.0449C291.8 29.8083 289.589 35.0245 289.857 41.0626C289.907 42.0689 290.108 43.025 290.393 43.981C291.08 46.3291 291.716 46.9162 293.96 47.3522C293.256 48.0231 292.084 47.8554 291.264 46.9162C290.159 45.6582 289.506 44.1487 289.271 42.505C289.02 40.7775 288.836 39.0331 289.003 37.2888C288.585 38.8989 288.551 40.5426 288.853 42.1696C289.204 44.0984 289.673 46.0272 291.163 47.4529C292.419 48.6605 293.893 49.0295 295.567 48.3586C296.823 47.8554 297.961 47.151 299.067 46.3794C299.301 46.2117 299.502 45.9937 300.088 45.9434C299.251 46.9665 298.38 47.6374 297.476 48.2915C296.555 48.9456 295.55 49.4488 294.562 50.0023C295.684 50.1029 296.655 49.7339 297.576 49.214C298.481 48.694 299.335 48.107 300.289 47.6374C299.921 48.4928 299.033 48.8618 298.481 49.5327C301.411 47.9896 303.303 45.3563 305.463 42.9914C303.889 46.2285 301.495 48.694 298.681 50.8241ZM284.315 40.3749C284.399 33.2466 287.396 27.1918 291.214 21.4221C286.709 26.9234 284.449 33.2634 284.315 40.3749ZM298.347 20.5164C299.535 19.9126 300.741 19.3591 302.097 19.2417C303.454 19.1243 304.659 19.661 305.865 20.248C304.14 18.1179 300.289 19.0236 298.347 20.5164Z" fill="white"/>
<path d="M273.046 50.8241C273.649 46.1279 274.704 41.5322 275.96 36.9701C275.056 39.855 274.135 42.7566 273.231 45.6415C273.13 43.6288 273.85 41.8006 274.302 39.7543C273.716 40.6936 273.683 41.7335 272.929 42.4379C272.996 40.8613 273.448 39.3686 273.884 37.8758C274.336 36.3495 274.788 34.8233 275.307 33.3137C275.826 31.7707 276.362 30.2444 276.948 28.7349C277.534 27.2421 278.153 25.7829 278.806 24.3237C279.443 22.8813 280.129 21.4389 280.715 19.9797C277.952 25.0282 276.06 30.4624 273.783 35.7457C274.084 33.8672 274.788 32.1061 275.24 30.2779C272.946 35.9973 271.506 41.9851 269.898 47.9057C269.798 47.889 269.697 47.8554 269.614 47.8386C269.781 46.8155 269.965 45.7924 270.133 44.7693C269.061 48.1573 268.643 51.6963 267.789 55.1346C267.822 51.7969 268.609 48.5599 269.111 45.2725C267.789 49.9184 266.784 54.6482 266.131 59.4619C265.98 55.8726 266.583 52.3672 267.119 48.845C266.683 50.321 266.432 51.8137 266.198 53.3232C265.963 54.8998 265.712 56.4764 265.545 58.053C265.361 59.5961 265.26 61.1559 265.11 62.9338C264.641 61.3572 264.925 59.9986 264.992 58.6568C265.227 54.0109 266.014 49.432 267.052 44.9202C269.178 35.6954 272.393 26.8564 276.596 18.3863C277.098 17.3632 277.618 16.3401 278.103 15.3002C278.505 14.4616 279.225 14.0087 280.062 13.8745C281.469 13.6565 282.858 13.2875 284.315 13.7571C285.655 14.1932 286.224 15.2666 285.554 16.5078C283.244 20.8015 281.335 25.2798 279.51 29.7915C276.931 36.1483 275.156 42.7734 273.616 49.4488C273.431 49.9184 273.398 50.4216 273.046 50.8241ZM284.751 15.384C283.009 18.4702 281.385 21.6234 280.179 24.9611C281.703 21.7743 283.16 18.5373 284.751 15.384ZM278.94 16.642C277.316 19.074 276.228 21.7743 275.173 24.4915C276.429 21.875 277.684 19.2585 278.94 16.642Z" fill="white"/>
<path d="M371.251 50.8241C371.854 46.1279 372.909 41.5322 374.165 36.9701C373.261 39.855 372.34 42.7566 371.436 45.6415C371.335 43.6288 372.055 41.8006 372.507 39.7543C371.921 40.6936 371.888 41.7335 371.134 42.4379C371.201 40.8613 371.653 39.3686 372.089 37.8758C372.541 36.3495 372.993 34.8233 373.512 33.3137C374.031 31.7707 374.567 30.2444 375.153 28.7349C375.739 27.2421 376.358 25.7829 377.011 24.3237C377.648 22.8813 378.334 21.4389 378.92 19.9797C376.158 25.0282 374.265 30.4624 371.988 35.7457C372.29 33.8672 372.993 32.1061 373.445 30.2779C371.151 35.9973 369.711 41.9851 368.103 47.9057C368.003 47.889 367.903 47.8554 367.819 47.8386C367.986 46.8155 368.17 45.7924 368.338 44.7693C367.266 48.1573 366.848 51.6963 365.994 55.1346C366.027 51.7969 366.814 48.5599 367.316 45.2725C365.994 49.9184 364.989 54.6482 364.336 59.4619C364.185 55.8726 364.788 52.3672 365.324 48.845C364.889 50.321 364.637 51.8137 364.403 53.3232C364.169 54.8998 363.917 56.4764 363.75 58.053C363.566 59.5961 363.465 61.1559 363.315 62.9338C362.846 61.3572 363.13 59.9986 363.197 58.6568C363.432 54.0109 364.219 49.432 365.257 44.9202C367.383 35.6954 370.598 26.8564 374.801 18.3863C375.304 17.3632 375.823 16.3401 376.308 15.3002C376.71 14.4616 377.43 14.0087 378.267 13.8745C379.674 13.6565 381.064 13.2875 382.52 13.7571C383.86 14.1932 384.429 15.2666 383.759 16.5078C381.449 20.8015 379.54 25.2798 377.715 29.7915C375.136 36.1483 373.361 42.7734 371.821 49.4488C371.653 49.9184 371.62 50.4216 371.251 50.8241ZM382.972 15.384C381.231 18.4702 379.607 21.6234 378.401 24.9611C379.908 21.7743 381.382 18.5373 382.972 15.384ZM377.162 16.642C375.538 19.074 374.45 21.7743 373.395 24.4915C374.651 21.875 375.906 19.2585 377.162 16.642Z" fill="white"/>
<path d="M122.197 76.033C122.398 74.2384 122.565 72.427 122.816 70.6323C125.077 54.8327 129.162 39.5531 135.877 25.0282C137.585 21.355 139.41 17.7322 141.352 14.1764C141.503 13.9081 141.637 13.6229 141.721 13.3378C142.022 12.3147 142.759 11.8283 143.78 12.0799C145.421 12.4656 147.028 13.0024 148.736 13.1365C149.908 13.2372 150.193 13.8578 149.507 14.7635C147.33 17.6315 146.744 21.0531 146.074 24.4579C145.069 29.5567 144.534 34.7226 144.015 39.9053C143.847 41.6496 143.663 43.4107 143.479 45.1551C143.261 45.0041 143.244 44.7861 143.261 44.5512C143.294 43.5449 143.311 42.5386 143.361 41.549C143.495 39.4189 143.646 37.272 143.78 35.1419C143.378 39.1673 142.976 43.1927 142.323 47.1845C142.842 46.5472 143.211 45.8763 143.462 45.1551C144.701 42.9746 145.907 40.7607 147.213 38.6138C151.616 31.3346 156.355 24.2734 161.696 17.6483C162.902 16.1556 164.041 14.579 165.43 13.2372C165.832 12.8514 166.201 12.4321 166.82 12.2812C164.51 14.8976 162.483 17.7154 161.043 20.9022C161.78 20.248 162.283 19.3591 163.17 18.8224C162.517 20.2313 161.512 21.4221 160.675 22.7136C160.91 22.8478 161.01 22.4452 161.177 22.5794C161.378 22.7639 161.161 22.9316 161.077 23.0826C160.642 23.7367 160.19 24.3741 159.754 25.0282C159.603 25.2798 159.336 25.481 159.403 26.0178C160.273 25.1456 161.043 24.3573 161.512 23.3509C162.919 20.3654 164.376 17.4135 165.933 14.4951C166.837 12.8011 166.787 12.8346 168.679 13.4217C170.035 13.8242 171.324 14.4112 172.714 14.7132C173.819 14.948 173.953 15.4008 173.401 16.3401C169.432 23.049 166.351 30.1941 163.672 37.5068C162.534 40.6097 161.462 43.7294 160.357 46.8323C160.256 47.1342 160.206 47.4696 159.855 47.6541C160.508 43.8636 162.082 40.3246 163.053 36.4837C162.735 36.7856 162.668 37.1043 162.55 37.3894C162.416 37.7081 162.316 38.01 162.199 38.3287C161.412 40.6265 160.608 42.9243 159.888 45.2389C159.67 45.9098 159.084 46.2956 158.867 46.9497C158.465 48.1405 158.029 49.3146 157.594 50.5055C157.46 50.8577 157.443 51.277 156.958 51.5957C156.891 50.0358 157.678 48.6437 157.46 46.9329C156.573 48.1909 156.556 49.583 155.853 50.8074C155.535 50.1029 155.836 49.5662 155.819 48.8282C155.082 50.8577 154.848 52.8536 153.944 54.6482C153.91 51.6292 154.764 48.7611 155.401 45.8427C155.267 46.2788 155.149 46.7317 155.016 47.1677C154.882 47.6541 154.731 48.1405 154.614 48.6269C154.362 49.6501 154.346 50.8409 153.81 51.6963C153.123 52.7865 153.09 54.0444 152.571 55.1179C151.533 57.2312 151.516 59.4955 151.231 61.7262C151.215 61.8604 151.198 61.9946 151.181 62.1623C150.779 61.6423 150.612 60.636 150.729 59.5626C151.566 51.495 153.76 43.763 156.389 36.1315C156.774 35.0245 157.176 33.9176 157.577 32.8106C157.594 32.7603 157.577 32.7099 157.577 32.4919C157.025 33.3473 156.522 34.102 156.037 34.8736C152.253 40.8278 148.619 46.8658 145.773 53.34C145.27 54.4973 144.852 55.6881 144.416 56.8622C144.115 57.6673 143.78 57.835 143.144 57.3151C142.139 56.4597 141.001 55.8055 139.996 54.9837C139.41 54.5141 139.142 53.9606 139.678 53.2561C140.013 52.8033 139.996 52.3169 139.962 51.7466C139.879 50.3042 139.929 48.845 139.778 47.3858C139.962 49.0295 139.494 50.6396 139.259 52.2162C138.924 54.3799 139.125 56.51 139.142 58.6401C139.142 58.7407 139.092 58.8413 139.041 59.1097C138.556 58.0363 138.455 57.0467 138.405 56.0571C138.204 51.4783 138.171 46.8826 138.422 42.3037C138.506 40.6936 138.64 39.0667 138.673 37.4398C135.659 45.3731 133.198 53.4742 131.021 61.6759C130.971 60.4012 131.306 59.1936 131.573 57.9859C131.841 56.728 132.176 55.4869 132.494 54.2457C132.813 53.0045 133.147 51.7634 133.482 50.5222C133.817 49.2811 134.186 48.0567 134.437 46.7988C133.147 50.2874 131.573 53.6754 130.653 57.2983C130.87 53.6084 132.109 50.1197 132.813 46.413C132.277 46.6143 132.243 47.0168 132.126 47.3522C130.971 50.3377 130.301 53.4574 129.464 56.5268C129.012 58.204 128.56 59.8645 128.091 61.5417C128.057 61.6759 128.04 61.8268 127.756 61.9107C127.906 60.049 128.375 58.2879 128.71 56.4932C129.045 54.6818 129.447 52.8871 129.782 51.0589C128.107 56.4764 127.186 62.0616 125.83 67.563C125.579 66.3218 125.897 65.131 126.065 63.9401C126.232 62.699 126.466 61.4578 126.701 60.2167C126.952 58.9755 127.237 57.7679 127.521 56.5268C127.789 55.3024 128.057 54.0948 128.191 52.8368C127.739 54.7321 127.421 56.6777 126.818 58.5227C125.998 61.0721 125.227 63.6382 124.826 66.2883C124.608 67.6636 124.44 69.0557 124.122 70.4143C123.704 72.2257 123.084 74.0036 122.967 75.8821C122.85 77.6097 122.565 79.3204 122.515 81.0648C122.264 81.048 122.297 80.8132 122.18 80.7126C122.197 79.1695 122.197 77.5929 122.197 76.033ZM140.699 47.6038C140.465 48.8618 140.565 50.1365 140.364 51.3776C140.364 51.4279 140.381 51.4783 140.398 51.5286C141.754 49.2811 142.189 46.6813 141.453 45.1047C141.084 46.1111 141.352 47.2516 140.816 48.2412C140.766 48.0231 140.733 47.8219 140.699 47.6038ZM133.047 35.578C134.487 32.0223 136.195 28.5672 137.618 24.9946C135.709 28.3491 134.336 31.9384 133.047 35.578ZM159.235 34.6052C160.508 31.6533 161.797 28.7013 163.07 25.7494C162.952 25.6991 162.852 25.6488 162.735 25.6152C161.345 28.5001 160.273 31.5526 159.235 34.6052Z" fill="white"/>
<path d="M160.642 76.033C160.843 74.2384 161.01 72.427 161.261 70.6323C163.522 54.8327 167.607 39.5531 174.322 25.0282C176.03 21.355 177.855 17.7322 179.797 14.1764C179.948 13.9081 180.082 13.6229 180.166 13.3378C180.467 12.3147 181.204 11.8283 182.225 12.0799C183.866 12.4656 185.474 13.0024 187.181 13.1365C188.354 13.2372 188.638 13.8578 187.952 14.7635C185.775 17.6315 185.189 21.0531 184.519 24.4579C183.514 29.5567 182.979 34.7226 182.46 39.9053C182.292 41.6496 182.108 43.4107 181.924 45.1551C181.706 45.0041 181.689 44.7861 181.706 44.5512C181.74 43.5449 181.756 42.5386 181.807 41.549C181.94 39.4189 182.091 37.272 182.225 35.1419C181.823 39.1673 181.421 43.1927 180.768 47.1845C181.287 46.5472 181.656 45.8763 181.907 45.1551C183.146 42.9746 184.352 40.7607 185.658 38.6138C190.061 31.3346 194.8 24.2734 200.142 17.6483C201.347 16.1556 202.486 14.579 203.876 13.2372C204.277 12.8514 204.646 12.4321 205.265 12.2812C202.955 14.8976 200.929 17.7154 199.489 20.9022C200.225 20.248 200.728 19.3591 201.615 18.8224C200.962 20.2313 199.957 21.4221 199.12 22.7136C199.355 22.8478 199.455 22.4452 199.622 22.5794C199.823 22.7639 199.606 22.9316 199.522 23.0826C199.087 23.7367 198.635 24.3741 198.199 25.0282C198.049 25.2798 197.781 25.481 197.848 26.0178C198.718 25.1456 199.489 24.3573 199.957 23.3509C201.364 20.3654 202.821 17.4135 204.378 14.4951C205.282 12.8011 205.232 12.8346 207.124 13.4217C208.48 13.8242 209.77 14.4112 211.159 14.7132C212.264 14.948 212.398 15.4008 211.846 16.3401C207.877 23.049 204.796 30.1941 202.117 37.5068C200.979 40.6097 199.907 43.7294 198.802 46.8323C198.702 47.1342 198.651 47.4696 198.3 47.6541C198.953 43.8636 200.527 40.3246 201.498 36.4837C201.18 36.7856 201.113 37.1043 200.996 37.3894C200.862 37.7081 200.761 38.01 200.644 38.3287C199.857 40.6265 199.053 42.9243 198.333 45.2389C198.115 45.9098 197.529 46.2956 197.312 46.9497C196.91 48.1405 196.475 49.3146 196.039 50.5055C195.905 50.8577 195.888 51.277 195.403 51.5957C195.336 50.0358 196.123 48.6437 195.905 46.9329C195.018 48.1909 195.001 49.583 194.298 50.8074C193.98 50.1029 194.281 49.5662 194.264 48.8282C193.528 50.8577 193.293 52.8536 192.389 54.6482C192.355 51.6292 193.209 48.7611 193.846 45.8427C193.712 46.2788 193.595 46.7317 193.461 47.1677C193.327 47.6541 193.176 48.1405 193.059 48.6269C192.808 49.6501 192.791 50.8409 192.255 51.6963C191.568 52.7865 191.535 54.0444 191.016 55.1179C189.978 57.2312 189.961 59.4955 189.676 61.7262C189.66 61.8604 189.643 61.9946 189.626 62.1623C189.224 61.6423 189.057 60.636 189.174 59.5626C190.011 51.495 192.205 43.763 194.834 36.1315C195.219 35.0245 195.621 33.9176 196.022 32.8106C196.039 32.7603 196.022 32.7099 196.022 32.4919C195.47 33.3473 194.968 34.102 194.482 34.8736C190.698 40.8278 187.064 46.8658 184.218 53.34C183.715 54.4973 183.297 55.6881 182.861 56.8622C182.56 57.6673 182.225 57.835 181.589 57.3151C180.584 56.4597 179.446 55.8055 178.441 54.9837C177.855 54.5141 177.587 53.9606 178.123 53.2561C178.458 52.8033 178.441 52.3169 178.407 51.7466C178.324 50.3042 178.374 48.845 178.223 47.3858C178.407 49.0295 177.939 50.6396 177.704 52.2162C177.369 54.3799 177.57 56.51 177.587 58.6401C177.587 58.7407 177.537 58.8413 177.487 59.1097C177.001 58.0363 176.9 57.0467 176.85 56.0571C176.649 51.4783 176.616 46.8826 176.867 42.3037C176.951 40.6936 177.085 39.0667 177.118 37.4398C174.104 45.3731 171.643 53.4742 169.466 61.6759C169.416 60.4012 169.751 59.1936 170.019 57.9859C170.286 56.728 170.621 55.4869 170.939 54.2457C171.258 53.0045 171.593 51.7634 171.927 50.5222C172.262 49.2811 172.631 48.0567 172.882 46.7988C171.593 50.2874 170.019 53.6754 169.098 57.2983C169.315 53.6084 170.554 50.1197 171.258 46.413C170.722 46.6143 170.688 47.0168 170.571 47.3522C169.416 50.3377 168.746 53.4574 167.909 56.5268C167.457 58.204 167.005 59.8645 166.536 61.5417C166.502 61.6759 166.486 61.8268 166.201 61.9107C166.352 60.049 166.82 58.2879 167.155 56.4932C167.49 54.6818 167.892 52.8871 168.227 51.0589C166.552 56.4764 165.632 62.0616 164.275 67.563C164.024 66.3218 164.342 65.131 164.51 63.9401C164.677 62.699 164.912 61.4578 165.146 60.2167C165.397 58.9755 165.682 57.7679 165.966 56.5268C166.234 55.3024 166.502 54.0948 166.636 52.8368C166.184 54.7321 165.866 56.6777 165.263 58.5227C164.443 61.0721 163.672 63.6382 163.271 66.2883C163.053 67.6636 162.885 69.0557 162.567 70.4143C162.149 72.2257 161.529 74.0036 161.412 75.8821C161.295 77.6097 161.01 79.3204 160.96 81.0648C160.709 81.048 160.742 80.8132 160.625 80.7126C160.642 79.1695 160.642 77.5929 160.642 76.033ZM179.161 47.6038C178.927 48.8618 179.027 50.1365 178.826 51.3776C178.826 51.4279 178.843 51.4783 178.86 51.5286C180.216 49.2811 180.651 46.6813 179.914 45.1047C179.546 46.1111 179.814 47.2516 179.278 48.2412C179.228 48.0231 179.194 47.8219 179.161 47.6038ZM171.509 35.578C172.949 32.0223 174.657 28.5672 176.08 24.9946C174.171 28.3491 172.798 31.9384 171.509 35.578ZM197.697 34.6052C198.969 31.6533 200.259 28.7013 201.531 25.7494C201.414 25.6991 201.314 25.6488 201.196 25.6152C199.807 28.5001 198.735 31.5526 197.697 34.6052Z" fill="white"/>
<path d="M270.685 12.2308C269.932 13.7236 268.676 14.9312 268.174 16.5917C269.446 15.8369 270.166 14.5119 271.405 13.4217C271.271 14.21 270.819 14.5957 270.602 15.2331C272.209 13.7068 273.448 11.9457 275.139 10.6878C275.223 10.7549 275.307 10.8387 275.39 10.9058C273.75 12.9856 272.092 15.0486 270.451 17.1284C270.501 17.1619 270.535 17.1955 270.585 17.2458C271.104 16.6084 271.69 16.0214 272.109 15.3337C273.113 13.6229 274.821 12.6669 276.311 11.6103C278.321 10.1846 280.196 8.50736 282.557 7.53456C282.657 7.87001 282.423 7.97064 282.272 8.08805C273.348 14.8473 267.738 24.0554 263.234 34.0517C260.873 39.2847 258.981 44.7022 257.591 50.2706C257.474 50.7235 257.323 51.1763 257.39 51.6627C257.457 52.2162 257.039 52.4175 256.603 52.5852C255.9 52.8536 255.163 52.7194 254.443 52.6859C253.221 52.6523 252.015 52.7362 250.793 52.8871C249.705 53.0213 249.387 52.602 249.638 51.5286C250.224 49.0462 250.86 46.5807 251.681 44.1823C251.865 43.6288 251.53 43.243 251.53 42.7566C251.513 41.9683 251.429 41.1968 251.362 40.4085C251.346 40.224 251.346 39.9556 251.094 39.9556C250.86 39.9556 250.843 40.224 250.827 40.4085C250.76 40.962 250.709 41.5154 250.642 42.0689C250.609 42.3541 250.676 42.6895 250.341 42.9075C250.09 42.505 250.123 42.0522 249.973 41.6161C249.721 43.1591 249.855 44.7357 249.42 46.2788C248.633 43.5281 249.119 40.7104 249.018 37.792C248.75 38.2448 248.834 38.6138 248.817 38.966C248.8 40.1401 248.8 41.3142 248.784 42.4882C248.767 43.2933 248.934 44.1152 248.348 44.8196C248.281 44.8867 248.281 45.0376 248.281 45.1383C248.181 47.3858 247.528 49.5997 247.779 51.864C247.796 52.0485 247.746 52.233 247.712 52.5517C247.16 51.9143 247.109 51.2267 247.059 50.5893C246.741 46.5975 246.758 42.6056 246.959 38.597C247.076 36.316 247.21 34.0182 247.344 31.7371C247.377 31.0495 247.444 30.345 247.411 29.6238C243.057 39.1841 239.574 49.0966 236.192 59.0426C236.745 55.6881 237.933 52.5181 238.838 49.2475C238.067 51.2602 237.28 53.2729 236.477 55.3527C236.175 54.9837 236.359 54.6985 236.426 54.4134C237.146 51.5957 237.883 48.7947 238.62 45.9769C238.754 45.4737 239.089 44.7022 238.603 44.5345C238.118 44.3668 237.917 45.2054 237.749 45.6582C236.611 48.694 235.522 51.7466 234.4 54.7992C234.283 55.1011 234.25 55.4533 233.764 55.621C234.384 53.2561 235.003 50.8912 235.606 48.5263C233.831 53.6419 232.391 58.8581 230.717 64.0072C231.118 60.1328 232.257 56.4261 233.295 52.6523C233.061 52.7697 233.061 52.9542 233.027 53.0884C232.492 54.8495 231.989 56.6106 231.185 58.2878C230.281 60.1831 229.963 62.2964 229.478 64.3259C228.758 67.3617 227.418 70.2298 227.083 73.383C226.983 74.3223 226.782 75.2447 226.48 76.1672C226.48 75.3286 226.43 74.5068 226.48 73.6681C226.815 68.6196 228.138 63.7556 229.427 58.8916C232.96 45.6414 237.347 32.7267 243.626 20.4996C244.531 18.7385 245.552 17.0277 246.607 15.3505C246.741 15.1325 246.875 14.9312 246.975 14.6964C247.444 13.5391 248.064 13.2539 249.186 13.7068C249.956 14.0087 250.123 13.8913 250.157 13.0527C250.19 12.1302 250.441 11.8283 251.396 11.8786C253.238 11.9625 255.063 11.996 256.905 11.996C257.541 11.996 257.876 12.2476 257.725 12.9856C256.436 19.0907 255.398 25.2294 254.678 31.4185C254.477 33.1125 254.309 34.8065 254.175 36.5173C257.206 28.8858 260.923 21.6401 266.03 15.166C263.971 18.8392 261.593 22.3278 259.952 26.2526C262.531 20.8183 266.265 16.273 270.685 12.2308ZM253.874 31.0662C253.807 31.0495 253.723 31.0327 253.656 31.0159C253.489 32.7602 253.321 34.4878 253.137 36.2321C253.07 36.9869 253.204 37.8423 252.886 38.4629C252.166 39.855 252.283 41.3477 251.965 42.7901C253.924 39.0667 253.472 34.991 253.874 31.0662ZM258.948 38.7144C260.304 35.8296 261.493 32.8777 262.832 29.9928C261.292 32.7938 259.818 35.6116 258.948 38.7144ZM249.454 31.452C249.922 28.5672 250.408 25.6823 250.877 22.8142C250.776 22.7974 250.676 22.7807 250.575 22.7639C249.906 25.6152 249.571 28.5336 249.454 31.452ZM242.739 25.9507C240.847 28.9697 239.742 32.3242 238.453 35.6116C239.893 32.3913 241.266 29.1542 242.739 25.9507Z" fill="white"/>
<path d="M441.444 12.3147C440.69 13.8075 439.434 15.0151 438.932 16.6756C440.205 15.9208 440.925 14.5958 442.164 13.5056C442.03 14.2939 441.578 14.6796 441.36 15.317C442.967 13.7907 444.206 12.0296 445.898 10.7717C445.981 10.8388 446.065 10.9226 446.149 10.9897C444.508 13.0695 442.85 15.1325 441.209 17.2123C441.259 17.2458 441.293 17.2794 441.343 17.3297C441.862 16.6923 442.448 16.1053 442.867 15.4176C443.872 13.7068 445.579 12.7508 447.07 11.6942C449.079 10.2685 450.954 8.59126 453.315 7.61846C453.416 7.95391 453.181 8.05454 453.031 8.17195C444.106 14.9312 438.497 24.1393 433.992 34.1356C431.631 39.3686 429.739 44.7861 428.35 50.3545C428.232 50.8074 428.082 51.2603 428.149 51.7467C428.216 52.3001 427.797 52.5014 427.362 52.6691C426.658 52.9375 425.922 52.8033 425.202 52.7698C423.979 52.7362 422.774 52.8201 421.551 52.971C420.463 53.1052 420.145 52.6859 420.396 51.6125C420.982 49.1302 421.618 46.6646 422.439 44.2662C422.623 43.7127 422.288 43.3269 422.288 42.8405C422.271 42.0522 422.188 41.2807 422.121 40.4924C422.104 40.3079 422.104 40.0395 421.853 40.0395C421.618 40.0395 421.602 40.3079 421.585 40.4924C421.518 41.0459 421.468 41.5994 421.401 42.1528C421.367 42.438 421.434 42.7734 421.099 42.9915C420.848 42.5889 420.882 42.1361 420.731 41.7C420.48 43.2431 420.614 44.8197 420.178 46.3627C419.391 43.612 419.877 40.7943 419.776 37.8759C419.509 38.3287 419.592 38.6977 419.576 39.0499C419.559 40.224 419.559 41.3981 419.542 42.5722C419.525 43.3772 419.693 44.1991 419.107 44.9035C419.04 44.9706 419.04 45.1216 419.04 45.2222C418.939 47.4697 418.286 49.6837 418.537 51.9479C418.554 52.1324 418.504 52.3169 418.47 52.6356C417.918 51.9982 417.868 51.3106 417.817 50.6732C417.499 46.6814 417.516 42.6896 417.717 38.681C417.834 36.3999 417.968 34.1021 418.102 31.821C418.136 31.1334 418.203 30.4289 418.169 29.7077C413.816 39.268 410.333 49.1805 406.95 59.1265C407.503 55.772 408.692 52.602 409.596 49.3314C408.826 51.3441 408.039 53.3568 407.235 55.4366C406.934 55.0676 407.118 54.7825 407.185 54.4973C407.905 51.6796 408.642 48.8786 409.378 46.0608C409.512 45.5576 409.847 44.7861 409.361 44.6184C408.876 44.4507 408.675 45.2893 408.508 45.7421C407.369 48.7779 406.281 51.8305 405.159 54.8831C405.041 55.185 405.008 55.5372 404.522 55.7049C405.142 53.34 405.761 50.9751 406.364 48.6102C404.589 53.7258 403.149 58.942 401.475 64.0911C401.877 60.2167 403.015 56.51 404.054 52.7362C403.819 52.8536 403.819 53.0381 403.786 53.1723C403.25 54.9334 402.747 56.6945 401.944 58.3718C401.04 60.267 400.721 62.3804 400.236 64.4098C399.516 67.4456 398.176 70.3137 397.841 73.4669C397.741 74.4062 397.54 75.3287 397.239 76.2511C397.239 75.4125 397.188 74.5907 397.239 73.7521C397.574 68.7036 398.896 63.8396 400.186 58.9756C403.719 45.7254 408.106 32.8106 414.385 20.5835C415.289 18.8224 416.31 17.1116 417.365 15.4344C417.499 15.2164 417.633 15.0151 417.734 14.7803C418.202 13.623 418.822 13.3379 419.944 13.7907C420.714 14.0926 420.882 13.9752 420.915 13.1366C420.949 12.2141 421.2 11.9122 422.154 11.9625C423.996 12.0464 425.821 12.0799 427.663 12.0799C428.299 12.0799 428.634 12.3315 428.483 13.0695C427.194 19.1746 426.156 25.3133 425.436 31.5024C425.235 33.1964 425.068 34.8904 424.934 36.6012C427.964 28.9697 431.682 21.7241 436.789 15.2499C434.729 18.9231 432.351 22.4117 430.71 26.3365C433.289 20.9022 437.023 16.3569 441.444 12.3147ZM424.616 31.1501C424.549 31.1334 424.465 31.1166 424.398 31.0998C424.23 32.8442 424.063 34.5717 423.879 36.316C423.812 37.0708 423.946 37.9262 423.628 38.5468C422.908 39.9389 423.025 41.4316 422.707 42.8741C424.683 39.1506 424.214 35.0749 424.616 31.1501ZM429.706 38.7984C431.062 35.9135 432.251 32.9616 433.591 30.0767C432.033 32.8777 430.577 35.6955 429.706 38.7984ZM420.212 31.5359C420.681 28.6511 421.166 25.7662 421.635 22.8981C421.535 22.8813 421.434 22.8646 421.334 22.8478C420.664 25.6991 420.312 28.6007 420.212 31.5359ZM413.497 26.0346C411.605 29.0536 410.5 32.4081 409.211 35.6955C410.634 32.4752 412.024 29.2381 413.497 26.0346Z" fill="white"/>
<path d="M114.896 45.5241C116.554 43.8133 117.843 41.8174 119.015 39.7544C120.974 36.316 122.347 32.6261 123.754 28.9362C124.826 26.1184 125.395 23.3342 125.211 20.3655C125.144 19.3759 124.909 18.4031 124.742 17.3464C125.395 17.8664 125.931 19.7449 125.998 21.4054C126.065 22.8478 126.165 24.2902 126.199 25.7494C127.053 23.0826 126.852 20.399 126.45 17.6819C127.304 18.9566 127.354 20.4158 127.555 21.8414C127.555 19.4262 127.22 17.0781 125.763 15.0654C124.223 12.9185 121.996 12.3147 119.317 12.5831C119.735 11.9625 120.238 12.0631 120.623 12.0464C123.419 11.9625 125.613 13.0359 127.002 15.5518C127.923 17.2458 128.426 19.074 128.509 21.0028C128.627 23.6193 128.325 26.1855 127.873 28.7517C128.476 26.0849 128.945 23.418 128.66 20.6674C128.493 18.9901 128.208 17.3464 127.421 15.8201C126.785 14.579 125.88 13.5559 124.993 12.516C124.206 11.5935 123.017 11.3084 121.895 11.2245C117.776 10.9058 114.243 12.1302 111.531 15.3673C109.772 17.4638 108.433 19.812 107.361 22.3278C107.194 22.7304 107.01 23.1161 106.775 23.4851C106.976 22.1433 107.378 20.8854 107.947 19.6778C109.555 16.3065 111.598 13.3043 114.913 11.409C117.324 10.0337 119.936 9.41308 122.733 9.96657C126.148 10.6375 128.292 12.8514 129.514 15.9543C130.92 19.4933 130.904 23.1832 130.234 26.8564C128.71 35.3264 125.043 42.8237 119.786 49.5662C118.212 51.5789 116.252 53.2226 113.825 54.0612C108.868 55.772 104.029 52.8704 102.907 47.6542C102.087 43.8636 102.706 40.1904 103.828 36.5844C106.139 29.1374 110.308 22.8142 115.666 17.229C116.018 16.86 116.353 16.491 116.638 16.0717C117.492 14.8306 118.932 14.6293 120.254 15.3673C121.51 16.0885 122.632 16.9271 123.553 18.0341C123.938 18.487 123.905 19.0572 124.089 19.5604C124.206 19.8791 123.972 20.2481 123.603 20.3319C122.883 20.4996 122.347 20.9693 121.845 21.4389C116.487 26.6048 112.535 32.6596 110.509 39.855C109.973 41.7671 109.605 43.7294 110.04 45.7421C110.392 47.3858 111.095 47.5871 112.418 46.5304C114.076 45.2054 115.348 43.5282 116.487 41.7671C119.685 36.8192 122.23 31.603 123.369 25.7494C123.402 25.5649 123.419 25.3636 123.838 25.1791C123.285 29.0033 122.13 32.5087 120.573 35.9135C119.032 39.3518 117.073 42.4883 114.896 45.5241ZM105.436 38.9493C105.385 39.0667 105.302 39.1841 105.268 39.3015C104.665 41.331 104.398 43.4107 104.565 45.5241C104.732 47.5871 105.352 49.4656 106.909 50.9416C109.421 53.3232 113.121 53.0549 115.583 50.69C114.963 51.0422 114.478 51.3609 113.975 51.6124C110.894 53.1555 107.797 52.2163 106.055 49.2308C105.235 47.8387 105 46.2956 104.967 44.719C104.9 42.7902 105.185 40.8949 105.436 38.9493ZM119.635 21.8079C118.262 22.5459 115.013 26.7725 114.545 28.3659C116.068 25.9171 117.81 23.8374 119.635 21.8079Z" fill="white"/>
<path d="M391.278 45.5911C392.935 43.8804 394.225 41.8844 395.397 39.8214C397.356 36.3831 398.729 32.6932 400.136 29.0032C401.207 26.1855 401.776 23.4013 401.592 20.4325C401.525 19.443 401.291 18.4702 401.123 17.4135C401.776 17.9335 402.312 19.812 402.379 21.4724C402.446 22.9149 402.547 24.3573 402.58 25.8165C403.434 23.1497 403.233 20.4661 402.831 17.749C403.685 19.0237 403.736 20.4829 403.937 21.9085C403.937 19.4933 403.602 17.1451 402.145 15.1325C400.604 12.9856 398.377 12.3818 395.698 12.6501C396.117 12.0296 396.619 12.1302 397.004 12.1134C399.801 12.0296 401.994 13.103 403.384 15.6189C404.305 17.3129 404.807 19.1411 404.891 21.0699C405.008 23.6864 404.707 26.2526 404.255 28.8187C404.857 26.1519 405.326 23.4851 405.042 20.7344C404.874 19.0572 404.59 17.4135 403.803 15.8872C403.166 14.6461 402.262 13.6229 401.375 12.5831C400.588 11.6606 399.399 11.3754 398.277 11.2916C394.158 10.9729 390.625 12.1973 387.912 15.4344C386.154 17.5309 384.815 19.8791 383.743 22.3949C383.575 22.7974 383.391 23.1832 383.157 23.5522C383.358 22.2104 383.76 20.9525 384.329 19.7449C385.936 16.3736 387.979 13.3714 391.295 11.4761C393.706 10.1007 396.318 9.48016 399.114 10.0336C402.53 10.7045 404.673 12.9185 405.896 16.0214C407.302 19.5604 407.285 23.2503 406.616 26.9235C405.092 35.3935 401.425 42.8908 396.167 49.6333C394.593 51.646 392.634 53.2897 390.206 54.1283C385.25 55.8391 380.411 52.9375 379.289 47.7212C378.468 43.9307 379.088 40.2575 380.21 36.6515C382.521 29.2045 386.69 22.8813 392.048 17.2961C392.4 16.9271 392.735 16.5581 393.019 16.1388C393.873 14.8976 395.313 14.6964 396.636 15.4344C397.892 16.1556 399.014 16.9942 399.935 18.1012C400.32 18.554 400.286 19.1243 400.47 19.6275C400.588 19.9461 400.353 20.3151 399.985 20.399C399.265 20.5667 398.729 21.0363 398.227 21.506C392.869 26.6719 388.917 32.7267 386.891 39.9221C386.355 41.8341 385.987 43.7965 386.422 45.8092C386.774 47.4529 387.477 47.6542 388.8 46.5975C390.457 45.2725 391.73 43.5952 392.869 41.8341C396.067 36.8863 398.612 31.6701 399.75 25.8165C399.784 25.632 399.801 25.4307 400.219 25.2462C399.667 29.0703 398.511 32.5758 396.954 35.9806C395.414 39.4189 393.455 42.5721 391.278 45.5911ZM381.817 39.0331C381.767 39.1505 381.683 39.268 381.65 39.3854C381.047 41.4148 380.779 43.4946 380.947 45.6079C381.114 47.6709 381.734 49.5494 383.291 51.0254C385.802 53.4071 389.503 53.1387 391.964 50.7738C391.345 51.126 390.859 51.4447 390.357 51.6963C387.276 53.2394 384.178 52.3001 382.437 49.3146C381.616 47.9225 381.382 46.3794 381.348 44.8028C381.281 42.874 381.566 40.962 381.817 39.0331ZM396 21.875C394.627 22.613 391.378 26.8396 390.909 28.433C392.433 25.9842 394.191 23.9212 396 21.875Z" fill="white"/>
<path d="M441.175 28.9362C441.259 28.7517 441.343 28.5672 441.494 28.2317C441.443 37.4398 444.642 44.8699 452.645 49.6165C458.221 52.9207 464.232 54.3631 470.729 53.0046C466.459 53.6084 462.29 53.1723 458.238 51.7299C457.367 51.428 456.463 51.1764 455.693 50.6061C459.661 51.9311 463.713 52.5182 467.883 52.4175C464.936 52.1156 461.938 52.0653 459.192 50.8409C459.209 50.7403 459.226 50.6397 459.243 50.5558C460.415 50.7571 461.587 50.9919 462.776 51.1428C466.208 51.5789 469.591 51.428 472.906 50.3377C474.095 49.952 475.183 49.3482 476.171 48.5766C478.766 46.564 479.721 43.5785 478.867 40.4085C478.097 37.6075 475.669 34.5885 472.856 33.1293C473.844 33.9847 474.681 34.6388 475.434 35.3768C477.728 37.6075 479.152 40.224 478.817 43.5449C478.649 45.2893 477.812 46.7149 476.489 47.8219C475.099 48.996 473.458 49.7004 471.717 50.17C471.55 50.2203 471.382 50.1868 471.165 50.1029C473.308 49.2979 475.351 48.3922 476.791 46.5136C476.724 46.4969 476.657 46.4633 476.657 46.4801C474.798 48.5431 472.387 49.5159 469.708 49.8513C465.086 50.4216 460.532 50.1365 456.128 48.4592C455.843 48.3418 455.458 48.3418 455.291 47.8219C456.312 48.0735 457.267 48.2915 458.221 48.5096C454.236 47.2349 450.536 45.5744 448.124 41.8845C453.734 47.6038 460.766 48.8115 468.318 48.3418C464.383 48.5431 460.498 48.2077 456.697 46.933C452.829 45.6247 449.949 43.0753 447.488 39.9389C449.615 41.9515 451.976 43.5952 454.621 44.8196C452.963 43.7462 451.289 42.6895 449.866 41.2807C448.426 39.855 447.304 38.2616 446.684 36.316C446.919 36.2489 446.969 36.3663 447.019 36.467C449.882 41.5658 454.37 44.3835 459.946 45.5744C463.68 46.3627 467.431 46.5975 471.165 45.4738C474.296 44.5345 474.915 42.8573 473.224 40.0898C472.236 38.4797 470.813 37.4062 469.172 36.5508C467.715 35.7961 466.225 35.142 464.651 34.6556C461.587 33.7163 458.606 32.5255 455.626 31.3346C452.947 30.2612 450.385 28.9865 448.342 26.8564C444.909 23.2503 445.495 17.9167 449.631 15.166C451.758 13.7404 454.119 13.0359 456.63 12.9017C465.304 12.4824 472.872 15.2163 479.218 21.2041C479.419 21.3886 479.62 21.5731 479.855 21.7073C480.725 22.244 480.91 22.7471 480.257 23.5187C479.001 25.045 477.862 26.6719 476.087 27.6782C475.501 28.0137 474.982 28.0305 474.53 27.5441C471.918 24.6927 468.653 22.9316 465.003 21.8414C461.721 20.8519 458.405 20.3151 455.006 21.3047C454.487 21.4557 453.884 21.3718 453.315 21.506C454.219 20.4661 455.559 20.4493 456.865 20.0468C455.592 20.0636 454.521 20.3487 453.549 20.9357C452.394 21.6234 452.277 22.6968 453.248 23.6361C454.286 24.6592 455.626 25.1791 456.949 25.6991C459.176 26.5713 461.503 27.1415 463.797 27.8124C466.426 28.5839 468.988 29.5735 471.533 30.5966C469.507 29.4729 467.297 28.802 465.086 27.9969C465.354 27.695 465.572 27.8124 465.756 27.8627C470.277 28.9865 474.413 30.8818 478.03 33.9008C482.45 37.5907 483.79 44.8196 479.788 49.5494C478.03 51.6292 475.669 52.7362 473.124 53.5916C463.311 56.879 450.536 51.9311 445.445 44.6519C443.001 41.1465 441.611 37.2553 441.276 32.9951C441.259 32.7267 441.192 32.4584 441.159 32.19C441.175 31.1166 441.175 30.0264 441.175 28.9362ZM472.487 22.0427C469.473 19.1914 459.326 16.491 456.664 17.8831C462.34 17.4471 467.481 19.0572 472.487 22.0427ZM464.433 14.8138C468.837 15.904 472.722 18.118 476.472 20.5667C473.04 17.4135 468.837 15.904 464.433 14.8138ZM475.367 43.4611C476.623 41.18 472.956 35.729 467.966 34.4543C468.904 34.9742 469.708 35.3097 470.377 35.8296C472.939 37.7584 475.652 39.6202 475.367 43.4611Z" fill="white"/>
<path d="M368.355 16.5749C365.525 16.0381 362.745 15.1995 359.865 14.9144C363.901 15.5182 367.685 16.8768 371.285 18.8056C370.213 18.9398 369.209 18.3695 367.953 18.4366C368.807 19.1578 369.878 19.1075 370.598 19.7281C370.414 20.03 370.096 19.7952 369.862 19.9964C371.05 20.4493 372.223 20.8854 373.378 21.3382C373.361 21.4221 373.328 21.5227 373.311 21.6066C372.256 21.6066 371.285 21.137 370.196 20.9021C372.775 22.3446 375.253 23.787 377.899 24.9443C377.279 25.1288 376.743 24.8772 376.208 24.6927C372.943 23.5354 369.677 22.3949 366.329 21.5227C365.458 21.3047 364.587 21.137 363.733 20.8854C363.164 20.7176 362.879 20.9021 362.561 21.355C360.317 24.6256 358.609 28.1646 357.052 31.8042C354.39 38.0603 352.28 44.5177 350.338 51.0421C350.22 51.4447 350.087 51.8472 349.953 52.233C349.936 52.3169 349.869 52.3672 349.735 52.4007C349.718 51.1931 350.103 50.0861 350.405 48.9624C350.706 47.8051 351.041 46.6478 351.376 45.4905C351.711 44.3667 352.046 43.243 352.38 42.1192C352.715 40.9619 353.05 39.8214 353.402 38.6306C353.318 38.6641 353.251 38.6809 353.251 38.6977C352.447 41.7502 351.007 44.568 349.902 47.5032C349.685 48.0902 349.5 48.7108 349.199 49.281C349.3 46.6813 350.153 44.2326 350.505 41.6664C348.797 45.0041 348.044 48.6772 346.721 52.1659C346.905 49.6333 347.592 47.1845 347.927 44.6686C346.939 48.4089 345.951 52.1659 344.946 56.0068C344.628 55.2856 344.611 55.2856 345.063 53.0045C345.264 51.9814 345.482 50.9751 345.716 49.9687C345.934 48.9959 346.185 48.0231 346.436 46.9497C346.168 47.1845 346.185 47.4193 346.118 47.6206C345.113 51.0925 343.941 54.514 343.138 58.053C342.736 59.8477 342.233 61.7262 341.379 63.5544C341.112 63.1015 341.195 62.7325 341.246 62.3803C343.104 49.7507 346.353 37.5404 351.627 25.8835C352.548 23.8373 353.67 21.9085 354.758 19.9461C355.06 19.3926 355.043 19.2081 354.356 19.1578C351.443 18.9398 348.529 18.5372 345.582 18.8391C345.331 18.8727 345.03 18.8056 344.846 18.923C343.657 19.6945 342.87 18.9062 342.049 18.2521C340.726 17.1954 340.626 15.4008 341.011 14.3441C341.179 13.8913 341.413 13.5055 341.915 13.4552C343.355 13.321 344.762 12.9017 346.219 12.8514C349.015 12.7675 351.794 12.9017 354.574 13.2372C358.894 13.7739 363.181 14.5957 367.333 15.904C367.702 16.0214 368.053 16.1556 368.422 16.2897C368.388 16.4239 368.371 16.491 368.355 16.5749ZM349.902 33.8001C350.89 31.3513 352.113 29.0032 353.1 26.5544C351.66 28.8019 350.823 31.301 349.902 33.8001Z" fill="white"/>
<path d="M215.513 46.3962C215.58 46.3627 215.663 46.3459 215.714 46.2788C218.56 43.2262 221.105 39.9892 222.73 36.098C223.081 35.2426 223.366 34.3201 223.918 33.5989C225.409 31.6533 225.794 29.2548 226.765 27.108C227.786 24.8437 228.724 22.5291 229.779 20.2816C230.432 18.8727 231.135 17.4806 232.039 16.2059C230.499 20.2816 228.607 24.2063 227.351 28.3994C227.585 27.8627 227.837 27.3428 228.054 26.8061C229.109 24.0051 230.465 21.3383 231.688 18.6044C231.956 18.0005 232.558 17.749 232.877 17.2122C233.647 15.9208 234.434 14.6293 235.221 13.3378C235.422 13.0191 235.589 12.6669 236.108 12.2979C235.69 14.1261 234.568 15.4847 234.484 17.1955C235.556 16.1891 235.991 14.7635 236.945 13.5223C237.13 14.2603 236.661 14.7132 236.577 15.4008C237.783 13.5559 238.62 11.6606 240.01 10.1007C238.921 13.2204 237.213 16.0382 236.025 19.1075C236.812 17.5309 237.615 15.9543 238.402 14.3777C238.787 13.6062 239.072 12.7676 239.943 12.365C240.093 12.2979 240.194 12.0799 240.294 11.9122C241.785 9.59758 243.744 7.68552 245.703 5.79024C245.803 5.68961 245.92 5.62252 246.054 5.53865C246.222 5.89087 245.971 6.0586 245.837 6.20955C242.689 10.0504 240.445 14.428 238.302 18.8559C234.819 26.0681 231.855 33.4815 229.779 41.2471C229.243 43.2095 228.64 45.1718 228.272 47.1845C228.138 47.9057 228.205 48.627 228.188 49.3649C228.171 50.3713 227.92 51.3105 227.401 52.1492C226.949 52.8704 226.33 53.2394 225.442 53.4071C224.253 53.6419 223.115 54.1115 221.959 54.4638C221.691 54.5476 221.423 54.6483 221.156 54.6818C220.235 54.7657 219.967 54.5308 220.05 53.6084C220.134 52.5852 220.268 51.5621 220.385 50.539C220.318 50.4887 220.251 50.4384 220.201 50.4048C219.933 50.7067 219.699 51.0254 219.397 51.3105C217.957 52.7027 216.434 53.927 214.29 54.078C211.829 54.2457 209.669 52.8704 208.765 50.5558C207.81 48.1238 207.794 45.6247 208.045 43.1088C208.999 33.6492 212.398 24.9443 216.333 16.4072C216.45 16.1556 216.584 15.904 216.668 15.6356C217.103 14.2938 217.606 13.8578 218.996 13.7571C220.168 13.6733 221.29 13.9416 222.411 14.2435C222.462 14.2603 222.545 14.2771 222.562 14.3106C222.914 15.166 223.952 15.3505 224.354 16.1556C224.521 16.491 224.655 16.8265 224.404 17.1787C221.959 20.8183 220.486 24.894 218.996 28.9697C217.204 33.8505 215.998 38.8654 215.446 44.0313C215.412 44.2829 215.446 44.5345 215.446 44.937C216.417 43.8804 217.036 42.7063 217.941 41.7503C217.438 43.4611 216.216 44.7693 215.295 46.2285C215.362 46.2956 215.446 46.3459 215.513 46.3962ZM210.071 47.1845C210.171 41.9012 211.544 36.836 212.683 31.7372C210.741 36.7018 210.238 41.918 210.071 47.1845ZM227.904 39.7879C229.025 36.4334 230.147 33.0957 231.336 29.7748C229.946 33.0286 228.573 36.2992 227.904 39.7879ZM220.218 43.0082C221.876 41.0794 223.048 38.8822 223.483 36.1483C222.495 38.6138 221.407 40.8278 220.218 43.0082ZM221.641 19.3256C220.77 20.2481 218.008 27.2589 217.89 28.6007C219.063 25.3972 220.101 22.2607 221.641 19.3256Z" fill="white"/>
</svg>
